<?xml version="1.0" standalone="no"?><!DOCTYPE svg PUBLIC "-//W3C//DTD SVG 1.1//EN" "http://www.w3.org/Graphics/SVG/1.1/DTD/svg11.dtd"><svg t="1702138496832" class="icon" viewBox="0 0 1024 1024" version="1.1" xmlns="http://www.w3.org/2000/svg" p-id="8639" xmlns:xlink="http://www.w3.org/1999/xlink" width="200" height="200"><path d="M755.8 928L332.3 927.99999999c-6.69999999 0-12.2-5.5-12.2-12.19999999L320.10000001 794.5c0-85 69.6-154.6 154.59999999-154.6l138.89999999 0c85 0 154.6 69.6 154.60000001 154.60000001l0 121.2c-0.1 6.8-5.6 12.29999999-12.4 12.29999999z" fill="#FFE161" p-id="8640"></path><path d="M736.1 928c-8.79999999 0-15.99999999-7.2-16-16L720.1 800c0-34-13.4-66.1-37.6-90.4-24.3-24.3-56.4-37.6-90.4-37.6l-160 0c-31.4 0-61.6 11.6-85 32.6-6.6 5.89999999-16.70000001 5.3-22.6-1.3-5.89999999-6.6-5.3-16.70000001 1.3-22.6 29.29999999-26.3 67.1-40.7 106.4-40.7l160 0c42.6 0 82.7 16.7 113 47 30.3 30.3 47 70.4 47 113l1e-8 112c-0.1 8.8-7.3 16-16.10000001 16zM295.7 769.8c-1.7 0-3.4-0.3-5.2-0.9-8.4-2.8-12.8-11.90000001-10-20.30000001 2.9-8.6 6.6-16.9 11-24.89999999 4.2-7.8 14-10.6 21.7-6.4 7.8 4.2 10.6 14 6.4 21.7-3.49999999 6.4-6.4 13.00000001-8.7 19.9-2.3 6.7-8.50000001 10.9-15.2 10.9zM288.1 928c-8.79999999 0-15.99999999-7.2-16-16L272.1 800c0-8.79999999 7.2-15.99999999 16-16s15.99999999 7.2 16 16l1e-8 112c0 8.79999999-7.2 15.99999999-16.00000001 16zM384.10000001 927.7c-8.79999999 0-15.99999999-7.2-16.00000001-16l0-80c0-8.79999999 7.2-15.99999999 16-16s15.99999999 7.2 16 16l0 80.00000001c0 8.9-7.2 15.99999999-15.99999999 15.99999999z" fill="" p-id="8641"></path><path d="M640 927.7c-8.79999999 0-15.99999999-7.2-16-16l0-80c0-8.79999999 7.2-15.99999999 16-16s15.99999999 7.2 16.00000001 16l-1e-8 80c0 8.9-7.10000001 16-16 16zM233.9 927.4l-120.00000001 0c-8.79999999 0-15.99999999-7.2-15.99999999-15.99999999s7.2-15.99999999 16-16.00000001l120 0c8.79999999 0 15.99999999 7.2 16.00000001 16s-7.2 15.99999999-16.00000001 16zM911.4 927.4l-71.99999999 0c-8.79999999 0-15.99999999-7.2-16.00000001-16s7.2-15.99999999 16-16l72 0c8.79999999 0 15.99999999 7.2 16 16s-7.10000001 16-16 16zM318.1 927.4l-20 0c-8.79999999 0-15.99999999-7.2-16-16s7.2-15.99999999 16-16l20 0c8.79999999 0 15.99999999 7.2 16 16s-7.2 15.99999999-16 16z" fill="" p-id="8642"></path><path d="M775.2 927.4l-400 0c-8.79999999 0-15.99999999-7.2-16-16s7.2-15.99999999 16-16l400 0c8.79999999 0 15.99999999 7.2 16 16s-7.2 15.99999999-16 16z" fill="" p-id="8643"></path><path d="M446.1 217.29999999c30.8-6.60000001 64.9-12.1 101.9-12.09999999 132.9 0 227.2 56.80000001 240.6 126.9 0.5 2.5 7 83.6 11.5 142.90000001 2 26.5-43.2 44.5-81.5 32.39999999-58.79999999-18.6-133.4-39.3-174.8-39.3-40.6-0.1-113.5 19.60000001-171.9 37.7-38.9 12.1-84.3-6.6-81.1-33.4 7-58.8 16.4-137.8 16.7-140.2 3.8-31.7 25.8-60.4 60.7-82.5-0.1-0.1 50.3-26.50000001 77.9-32.40000001z" fill="#7F5023" p-id="8644"></path><path d="M715.80000001 523.7c-7.19999999 0-13.6-0.8-18.40000001-2.3-18.6-5.9-145.5-40.2-183.5-42.7-28.8-1.9-83.5 13.4-131.8 26.8-15.8 4.4-32.2 8.9-47.2 12.8-39 10-63-1.4-76.19999999-12.7-14.5-12.4-19.3-27.3-19.80000001-28.9l-0.8-2.8 0.2-2.9c0.2-3.6 6.2-90 20.4-151.2 5.7-24.6 17.4-46.6 34.8-65.2 6-6.5 16.1-6.8 22.6-0.8s6.8 16.1 0.8 22.6c-13.5 14.5-22.6 31.6-27 50.6-12 51.9-18.1 125.5-19.4 142.5 1.4 2.9 4.5 8.2 10 12.5 10.8 8.6 26.50000001 10.3 46.5 5.2 14.8-3.8 30.2-8.1 46.6-12.6 53.2-14.8 108.2-30.1 142.4-27.9 43.9 2.8 176.4 39.5 191.1 44.1 6.60000001 2.1 30.8 0.9 42.9-8.5 5.3-4.1 5.8-8 5.6-11.4-0.4-7-0.4-16.6-0.4-27.8 0.1-43.7 0.2-125.1-28.2-156.40000001-6.1-6.7-39.7-41.1-104-61.89999999-68.09999999-22-142.8-19.8-222.1 6.7-8.4 2.8-17.4-1.7-20.2-10.1-2.8-8.4 1.7-17.4 10.1-20.2 46.1-15.4 91.6-23.3 135.4-23.3l0.19999999 0c36.90000001 0 72.7 5.5 106.50000001 16.5 55.8 18 97.4 48.4 117.8 70.8 36.8 40.4 36.6 126.5 36.5 178 0 10.6 0 19.8 0.3 25.9 0.9 15.1-5.5 28.8-17.9 38.4-14.5 11.5-36.4 16.2-53.79999999 16.2z" fill="" p-id="8645"></path><path d="M339.7 255c-6 0-11.8-3.4-14.50000001-9.3-3.7-8-0.20000001-17.5 7.80000001-21.3 5.7-2.6 11.4-5.2 17-7.6 8.1-3.5 17.50000001 0.3 21 8.4s-0.3 17.50000001-8.4 21c-5.3 2.3-10.8 4.7-16.1 7.2-2.3 1.2-4.6 1.6-6.8 1.6z" fill="" p-id="8646"></path><path d="M378.9 416.7c-10.89999999 0-19.7 8.9-19.7 20l0 63.09999999c0 104.6 86.69999999 189.5 193.7 189.5 107 0 193.7-84.8 193.70000001-189.49999999l-1e-8-63.1c0-11-8.8-20-19.7-20l-348 0z" fill="#F9E3C4" p-id="8647"></path><path d="M516.5 702.4c-114.00000001 0-206.7-90.9-206.70000001-202.6l1e-8-63.1c0-18.2 14.7-33 32.8-33l347.9 0c18.1 0 32.8 14.8 32.8 33l0 63.09999999c0 111.7-92.8 202.6-206.8 202.60000001zM342.6 429.8c-3.7 0-6.6 3.1-6.6 6.9l0 63.1c0 97.3 81 176.40000001 180.6 176.4s180.6-79.1 180.60000001-176.4l-1e-8-63.1c0-3.8-2.99999999-6.9-6.6-6.9l-348 0z" fill="#231815" p-id="8648"></path><path d="M516.2 702.4c-114.00000001 0-206.7-90.9-206.7-202.6l0-63.1c0-18.2 14.7-33 32.8-33l347.9 0c18.1 0 32.8 14.8 32.8 33l0 63.1c-0.1 111.7-92.8 202.6-206.8 202.6z m-174-272.6c-3.7 0-6.6 3.1-6.6 6.9l0 63.1c0 97.3 81 176.40000001 180.6 176.4s180.6-79.1 180.6-176.4l0-63.1c0-3.8-2.99999999-6.9-6.6-6.9l-348 0z" fill="" p-id="8649"></path><path d="M493 475.8l57.59999999 0L550.6 502 493 502z" fill="" p-id="8650"></path><path d="M409.6 484.3m-89.6 0a89.6 89.6 0 1 0 179.2 0 89.6 89.6 0 1 0-179.2 0Z" fill="#FAF0ED" p-id="8651"></path><path d="M409.6 587.1c-56.60000001 0-102.7-46.1-102.7-102.7S353 381.7 409.6 381.7s102.7 46.1 102.7 102.69999999-46.1 102.7-102.7 102.70000001z m0-179.3c-42.20000001 0-76.59999999 34.3-76.6 76.6s34.3 76.59999999 76.6 76.6 76.59999999-34.3 76.6-76.60000001-34.4-76.6-76.6-76.59999999z" fill="" p-id="8652"></path><path d="M628.9 489.1m-89.59999999 0a89.6 89.6 0 1 0 179.19999999 1e-8 89.6 89.6 0 1 0-179.19999999-1e-8Z" fill="#FAF0ED" p-id="8653"></path><path d="M628.9 591.8c-56.60000001 0-102.7-46.1-102.7-102.7s46.1-102.7 102.7-102.7 102.7 46.1 102.7 102.7-46 102.7-102.7 102.7z m0-179.3c-42.20000001 0-76.59999999 34.3-76.6 76.6s34.3 76.59999999 76.6 76.6c42.20000001 0 76.59999999-34.3 76.6-76.6s-34.4-76.6-76.6-76.6z" fill="" p-id="8654"></path><path d="M433.39999999 488.9m-25.49999999 0a25.5 25.5 0 1 0 50.99999999 0 25.5 25.5 0 1 0-50.99999999 0Z" fill="#231815" p-id="8655"></path><path d="M624.7 613.29999999m-19 1e-8a19 19 0 1 0 38 0 19 19 0 1 0-38 0Z" fill="#F3B28B" p-id="8656"></path><path d="M404.8 613.3m-19 0a19 19 0 1 0 38-1e-8 19 19 0 1 0-38 1e-8Z" fill="#F3B28B" p-id="8657"></path><path d="M610.30000001 488.9m-25.50000001-1e-8a25.5 25.5 0 1 0 51.00000001 1e-8 25.5 25.5 0 1 0-51.00000001-1e-8Z" fill="#231815" p-id="8658"></path><path d="M526.1 370.2l0 43.6M526.1 426.90000001c-7.19999999 0-13.09999999-5.9-13.1-13.10000001l0-43.6c0-7.19999999 5.9-13.09999999 13.1-13.1 7.19999999 0 13.09999999 5.9 13.1 13.1l0 43.6c0 7.19999999-5.9 13.09999999-13.1 13.10000001zM429 370.2l0 26.1M429 409.4c-7.19999999 0-13.09999999-5.9-13.1-13.1l0-26.1c0-7.19999999 5.9-13.09999999 13.1-13.1s13.09999999 5.9 13.1 13.1l0 26.1c0 7.3-5.8 13.09999999-13.1 13.1z" fill="" p-id="8659"></path><path d="M623.1 370.2l0 26.1M623.1 409.4c-7.19999999 0-13.09999999-5.9-13.1-13.1l0-26.1c0-7.19999999 5.9-13.09999999 13.1-13.10000001 7.19999999 0 13.09999999 5.9 13.1 13.10000001l0 26.1c0 7.3-5.8 13.09999999-13.1 13.1z" fill="" p-id="8660"></path><path d="M514.8 613.4l-1 0c-16.8-0.59999999-27.3-16.8-28.4-18.70000001-2.5-4.1-1.3-9.50000001 2.8-11.99999999s9.50000001-1.3 12 2.8c1.7 2.6 7.9 10.2 14.3 10.4 5.7 0.3 11.4-5.80000001 15-10.9 2.8-3.9 8.29999999-4.8 12.20000001-2 3.9 2.8 4.8 8.29999999 1.99999999 12.2-8.7 12.1-18.4 18.2-28.9 18.2z" fill="" p-id="8661"></path></svg>